<svg width="520" height="345" viewBox="0 0 520 345" fill="none" xmlns="http://www.w3.org/2000/svg">
<mask id="mask0_122_46" style="mask-type:alpha" maskUnits="userSpaceOnUse" x="0" y="0" width="520" height="345">
<rect width="520" height="345" fill="#D9D9D9"/>
</mask>
<g mask="url(#mask0_122_46)">
<path d="M258.98 -401.847C387.597 -401.847 491.878 -296.527 491.878 -166.587C491.878 -36.647 387.597 68.6728 258.98 68.6729C130.364 68.6729 26.083 -36.6469 26.083 -166.587C26.0831 -296.527 130.364 -401.847 258.98 -401.847Z" stroke="#E4E4E7" stroke-width="2"/>
<path d="M259.571 -519.716C456.972 -519.716 617.013 -358.122 617.013 -158.765C617.013 40.5925 456.972 202.188 259.571 202.188C62.17 202.187 -97.8716 40.5925 -97.8716 -158.765C-97.8714 -358.122 62.1701 -519.716 259.571 -519.716Z" stroke="#E4E4E7" stroke-width="2"/>
<path d="M259.571 -639C522.212 -639 735.142 -424 735.142 -158.764C735.141 106.472 522.212 321.471 259.571 321.472C-3.06995 321.472 -216 106.472 -216 -158.764C-216 -424 -3.07005 -639 259.571 -639Z" stroke="#E4E4E7" stroke-width="2"/>
</g>
</svg>
